<svg xmlns="http://www.w3.org/2000/svg" viewBox="-6 -6 598.3305479452055 112" width="598.3305479452055" height="112"><defs><linearGradient id="zg" x1="0" y1="0" x2="1" y2="1"><stop offset="0" stop-color="#00D084"/><stop offset="1" stop-color="#0099FF"/></linearGradient></defs><g transform="translate(0.00 0.00) scale(1.00000)"><path d="M 52.01,0.07 C 52.01,0.23 51.52,0.42 50.77,0.55 C 50.32,0.63 49.84,0.75 49.69,0.80 C 49.54,0.85 49.15,0.97 48.83,1.06 C 48.50,1.15 48.12,1.28 47.99,1.35 C 47.86,1.42 47.53,1.54 47.26,1.62 C 47,1.70 46.70,1.82 46.61,1.90 C 46.51,1.98 46.29,2.08 46.11,2.14 C 45.93,2.21 45.66,2.34 45.51,2.45 C 45.35,2.56 45.10,2.68 44.97,2.73 C 44.66,2.84 43.99,3.23 43.70,3.46 C 43.60,3.55 43.38,3.69 43.23,3.77 C 43.08,3.84 42.92,3.95 42.86,4.02 C 42.81,4.08 42.65,4.19 42.50,4.26 C 42.20,4.42 42.02,4.56 40.82,5.60 C 39.91,6.40 38.97,7.36 38.02,8.44 C 37.32,9.24 37.49,9.17 36.13,9.26 C 35.82,9.28 35.35,9.35 35.09,9.41 C 34.83,9.46 34.19,9.58 33.67,9.67 C 33.15,9.76 32.55,9.90 32.36,9.97 C 32.16,10.05 31.69,10.19 31.32,10.27 C 30.95,10.35 30.56,10.47 30.45,10.52 C 30.33,10.58 30.08,10.68 29.88,10.74 C 29.51,10.87 28.51,11.30 28.19,11.48 C 28.10,11.54 27.86,11.66 27.66,11.75 C 27.45,11.85 27.21,11.96 27.12,12.02 C 27.02,12.08 26.75,12.22 26.51,12.36 C 26.09,12.59 25.88,12.73 25.34,13.11 C 25.19,13.21 24.96,13.36 24.83,13.44 C 24.59,13.56 24.30,13.79 23.73,14.28 C 23.58,14.41 23.37,14.57 23.27,14.63 C 23,14.80 21.52,16.24 20.91,16.93 C 19.92,18.04 19.38,18.72 19.38,18.82 C 19.38,18.86 19.26,19.03 19.11,19.22 C 18.96,19.39 18.84,19.56 18.84,19.59 C 18.84,19.61 18.74,19.75 18.62,19.90 C 18.50,20.04 18.36,20.27 18.30,20.40 C 18.25,20.53 18.11,20.78 17.99,20.97 C 17.86,21.14 17.76,21.33 17.76,21.38 C 17.76,21.42 17.68,21.58 17.58,21.72 C 17.48,21.86 17.34,22.13 17.26,22.32 C 17.19,22.50 17.04,22.80 16.93,22.97 C 16.83,23.15 16.69,23.47 16.64,23.68 C 16.59,23.89 16.47,24.20 16.39,24.36 C 16.30,24.54 16.20,24.84 16.15,25.04 C 16.10,25.24 15.98,25.61 15.87,25.86 C 15.77,26.11 15.68,26.36 15.68,26.42 C 15.68,26.64 15.48,26.93 15.29,26.97 C 15.19,26.99 14.94,27.10 14.74,27.20 C 14.53,27.30 14.24,27.42 14.10,27.47 C 13.95,27.51 13.69,27.65 13.51,27.77 C 13.34,27.89 13.11,28.01 13.01,28.04 C 12.91,28.06 12.72,28.15 12.61,28.24 C 12.49,28.33 12.23,28.48 12.04,28.58 C 11.45,28.86 10.78,29.29 10.20,29.77 C 10.08,29.87 9.86,30.02 9.71,30.10 C 9.06,30.47 6.35,33.05 5.62,33.99 C 5.44,34.22 5.21,34.48 5.14,34.56 C 5.01,34.69 4.71,35.12 4.34,35.71 C 4.27,35.82 4.10,36.04 3.99,36.18 C 3.87,36.33 3.77,36.48 3.77,36.52 C 3.77,36.56 3.67,36.72 3.56,36.86 C 3.45,37.01 3.28,37.29 3.19,37.49 C 3.10,37.69 2.98,37.90 2.93,37.96 C 2.88,38.02 2.77,38.23 2.70,38.44 C 2.62,38.64 2.48,38.91 2.39,39.04 C 2.29,39.17 2.19,39.40 2.15,39.54 C 2.11,39.69 2,39.93 1.91,40.07 C 1.82,40.21 1.68,40.57 1.60,40.88 C 1.53,41.18 1.40,41.56 1.31,41.73 C 1.23,41.90 1.11,42.24 1.05,42.50 C 0.99,42.76 0.88,43.13 0.81,43.31 C 0.74,43.50 0.63,43.98 0.57,44.39 C 0.42,45.38 0.36,45.63 0.16,45.88 L 0,46.10 L 0,49.70 C 0,52.19 0.02,53.30 0.07,53.30 C 0.22,53.30 0.42,53.95 0.55,54.76 C 0.62,55.22 0.73,55.75 0.81,55.95 C 0.89,56.14 0.99,56.51 1.05,56.77 C 1.10,57.02 1.22,57.38 1.32,57.56 C 1.41,57.74 1.53,58.09 1.59,58.34 C 1.64,58.59 1.78,58.93 1.88,59.11 C 1.99,59.29 2.11,59.54 2.15,59.68 C 2.19,59.82 2.29,60.04 2.37,60.17 C 2.45,60.30 2.71,60.78 2.95,61.24 C 3.18,61.71 3.43,62.15 3.50,62.22 C 3.57,62.29 3.68,62.48 3.76,62.64 C 3.84,62.79 3.94,62.94 3.98,62.96 C 4.05,63.01 4.35,63.44 4.76,64.08 C 4.87,64.27 5.17,64.64 5.40,64.90 C 5.65,65.17 5.97,65.53 6.12,65.72 C 6.57,66.24 8.21,67.84 8.61,68.14 C 8.81,68.29 9.05,68.49 9.15,68.59 C 9.25,68.69 9.46,68.87 9.62,68.98 C 10.01,69.24 10.33,69.47 10.67,69.72 C 10.81,69.82 11.06,69.97 11.21,70.05 C 11.36,70.12 11.53,70.23 11.57,70.29 C 11.63,70.35 11.82,70.48 12,70.58 C 12.19,70.67 12.42,70.81 12.51,70.87 C 12.60,70.95 12.79,71.03 12.95,71.07 C 13.09,71.11 13.32,71.22 13.44,71.31 C 13.56,71.40 13.83,71.55 14.04,71.63 C 15.17,72.06 15.44,72.33 15.61,73.17 C 15.68,73.53 15.81,73.97 15.90,74.14 C 15.99,74.32 16.10,74.63 16.15,74.84 C 16.20,75.04 16.30,75.34 16.38,75.51 C 16.47,75.68 16.59,75.99 16.65,76.22 C 16.71,76.44 16.87,76.79 17,76.99 C 17.12,77.20 17.23,77.41 17.23,77.47 C 17.23,77.53 17.31,77.70 17.41,77.84 C 17.57,78.08 17.80,78.50 18.23,79.31 C 18.32,79.49 18.50,79.78 18.63,79.95 C 18.75,80.12 18.96,80.41 19.10,80.62 C 20.13,82.10 22.12,84.32 23.01,84.98 C 23.14,85.08 23.38,85.27 23.52,85.40 C 24.10,85.89 24.74,86.37 25.13,86.58 C 25.25,86.65 25.46,86.79 25.60,86.91 C 25.93,87.16 26.48,87.49 27.04,87.76 C 27.27,87.87 27.55,88.01 27.64,88.08 C 27.74,88.15 27.93,88.25 28.07,88.29 C 28.20,88.33 28.44,88.46 28.60,88.56 C 28.77,88.66 29.03,88.79 29.20,88.83 C 29.36,88.88 29.67,89 29.88,89.10 C 30.08,89.21 30.45,89.33 30.68,89.37 C 30.92,89.41 31.32,89.53 31.58,89.64 C 31.85,89.74 32.29,89.86 32.57,89.91 C 32.84,89.96 33.31,90.06 33.60,90.15 C 34.11,90.31 35.33,90.47 36.63,90.55 C 37.38,90.60 37.55,90.71 38.17,91.49 C 39.28,92.90 41.81,95.18 42.93,95.78 C 43.10,95.88 43.29,96.02 43.37,96.10 C 43.44,96.18 43.62,96.31 43.77,96.39 C 43.92,96.46 44.13,96.59 44.24,96.67 C 44.36,96.76 44.52,96.85 44.61,96.87 C 44.71,96.90 44.98,97.03 45.22,97.18 C 45.46,97.32 45.73,97.45 45.82,97.48 C 45.90,97.51 46.11,97.61 46.28,97.72 C 46.45,97.83 46.74,97.96 46.93,98.02 C 47.12,98.09 47.38,98.19 47.51,98.26 C 47.64,98.33 47.98,98.44 48.26,98.51 C 48.54,98.59 48.94,98.72 49.13,98.81 C 49.33,98.90 49.73,99.03 50.02,99.09 C 50.32,99.15 50.75,99.25 50.98,99.33 C 51.22,99.40 52.15,99.55 53.04,99.67 C 53.94,99.78 54.85,99.90 55.08,99.93 C 55.59,100.02 56.78,100.02 57.30,99.93 C 57.52,99.90 58.43,99.78 59.31,99.67 C 60.20,99.55 61.12,99.40 61.36,99.32 C 61.60,99.25 62.03,99.14 62.31,99.09 C 62.58,99.03 62.97,98.91 63.16,98.82 C 63.35,98.74 63.79,98.59 64.14,98.49 C 64.48,98.39 64.83,98.27 64.90,98.23 C 64.97,98.18 65.20,98.08 65.40,98.02 C 65.61,97.95 65.90,97.81 66.04,97.71 C 66.19,97.62 66.45,97.49 66.62,97.42 C 66.79,97.36 67.03,97.24 67.15,97.14 C 67.27,97.05 67.48,96.94 67.62,96.90 C 67.75,96.86 67.99,96.72 68.16,96.60 C 68.53,96.34 68.99,96.10 69.14,96.10 C 69.27,96.10 69.94,96.47 70.19,96.68 C 70.30,96.76 70.49,96.87 70.63,96.91 C 70.77,96.95 71.01,97.07 71.16,97.18 C 71.31,97.27 71.56,97.40 71.72,97.47 C 71.88,97.53 72.09,97.65 72.18,97.71 C 72.27,97.78 72.50,97.89 72.69,97.96 C 72.89,98.02 73.18,98.14 73.35,98.23 C 73.53,98.31 73.88,98.43 74.12,98.49 C 74.38,98.55 74.77,98.69 74.99,98.79 C 75.21,98.89 75.59,99.01 75.83,99.06 C 76.08,99.11 76.51,99.22 76.81,99.31 C 77.48,99.50 80.77,99.95 81.86,99.98 C 82.45,100 82.95,99.97 83.65,99.87 C 84.18,99.80 85.12,99.67 85.73,99.60 C 86.34,99.52 86.96,99.42 87.11,99.38 C 87.25,99.32 87.68,99.21 88.05,99.13 C 88.42,99.05 88.94,98.89 89.21,98.78 C 89.48,98.68 89.92,98.53 90.20,98.45 C 90.47,98.38 90.79,98.27 90.92,98.19 C 91.04,98.12 91.27,98.03 91.42,97.99 C 91.57,97.95 91.79,97.85 91.92,97.76 C 92.05,97.67 92.29,97.55 92.45,97.49 C 92.62,97.42 92.88,97.28 93.03,97.18 C 93.17,97.07 93.45,96.94 93.64,96.88 C 93.83,96.82 94.04,96.70 94.11,96.63 C 94.18,96.55 94.35,96.43 94.49,96.35 C 94.63,96.29 94.88,96.13 95.04,96.01 C 95.20,95.89 95.41,95.74 95.52,95.68 C 95.72,95.56 96.14,95.25 96.69,94.84 C 97.49,94.24 99.70,92.05 100.12,91.46 C 100.27,91.25 100.50,90.96 100.66,90.82 L 100.93,90.55 L 101.82,90.50 C 103,90.43 103.76,90.33 104.33,90.18 C 104.59,90.10 105.11,89.99 105.49,89.92 C 105.86,89.84 106.32,89.72 106.50,89.64 C 106.67,89.57 107.08,89.44 107.42,89.37 C 107.75,89.30 108.12,89.18 108.25,89.10 C 108.37,89.03 108.63,88.92 108.83,88.87 C 109.03,88.80 109.32,88.68 109.49,88.57 C 109.65,88.47 109.91,88.34 110.06,88.29 C 110.20,88.25 110.43,88.14 110.56,88.04 C 110.70,87.96 110.97,87.82 111.17,87.75 C 111.37,87.67 111.59,87.55 111.66,87.49 C 111.74,87.42 111.91,87.31 112.03,87.25 C 112.16,87.18 112.36,87.06 112.47,86.97 C 112.57,86.88 112.77,86.75 112.90,86.67 C 114.09,86.03 116.93,83.48 117.96,82.15 C 118.10,81.96 118.35,81.65 118.49,81.46 C 118.75,81.14 119.07,80.70 119.39,80.23 C 119.83,79.57 119.97,79.34 120.08,79.10 C 120.14,78.96 120.24,78.78 120.31,78.71 C 120.38,78.63 120.51,78.42 120.59,78.23 C 120.67,78.05 120.80,77.80 120.88,77.70 C 120.97,77.58 121.07,77.37 121.12,77.22 C 121.17,77.08 121.28,76.81 121.37,76.63 C 121.46,76.44 121.58,76.14 121.64,75.95 C 121.69,75.76 121.82,75.44 121.93,75.24 C 122.03,75.04 122.15,74.70 122.19,74.50 C 122.24,74.30 122.36,73.91 122.46,73.66 C 122.57,73.40 122.67,73.03 122.70,72.85 C 122.72,72.66 122.79,72.45 122.83,72.37 C 122.92,72.24 124.09,71.61 124.25,71.61 C 124.29,71.61 124.47,71.51 124.66,71.40 C 124.84,71.28 125.16,71.13 125.36,71.05 C 125.56,70.99 125.78,70.87 125.86,70.81 C 125.94,70.74 126.10,70.62 126.23,70.56 C 126.36,70.50 126.72,70.27 127.03,70.07 C 127.34,69.86 127.76,69.59 127.95,69.47 C 128.16,69.35 128.55,69.07 128.82,68.83 C 129.09,68.60 129.47,68.29 129.66,68.14 C 130.13,67.78 131.68,66.26 132.33,65.52 C 132.83,64.94 133.16,64.52 133.59,63.90 C 133.69,63.75 133.92,63.44 134.10,63.20 C 134.29,62.95 134.50,62.63 134.57,62.48 C 134.64,62.31 134.78,62.08 134.87,61.96 C 134.97,61.84 135.08,61.63 135.12,61.51 C 135.17,61.38 135.27,61.18 135.36,61.06 C 135.45,60.94 135.58,60.70 135.66,60.52 C 135.73,60.35 135.87,60.09 135.96,59.97 C 136.04,59.84 136.15,59.58 136.19,59.41 C 136.23,59.23 136.35,58.91 136.46,58.70 C 136.57,58.49 136.69,58.18 136.73,58.01 C 136.77,57.85 136.88,57.54 136.97,57.34 C 137.06,57.14 137.19,56.68 137.27,56.33 C 137.38,55.80 137.44,55.67 137.60,55.51 L 137.81,55.32 L 137.81,49.53 L 137.81,43.74 L 137.61,43.55 C 137.46,43.41 137.40,43.26 137.31,42.84 C 137.25,42.54 137.11,42.07 137,41.80 C 136.89,41.52 136.78,41.20 136.76,41.09 C 136.74,40.98 136.61,40.69 136.49,40.45 C 136.38,40.21 136.24,39.86 136.20,39.68 C 136.15,39.49 136.04,39.24 135.95,39.13 C 135.85,39.01 135.74,38.78 135.69,38.63 C 135.63,38.47 135.46,38.17 135.32,37.95 C 135.17,37.73 135.05,37.52 135.05,37.48 C 135.05,37.45 134.94,37.27 134.81,37.08 C 134.68,36.89 134.58,36.70 134.58,36.64 C 134.58,36.60 134.49,36.45 134.38,36.33 C 134.28,36.21 134.11,35.99 134.01,35.84 C 133.92,35.69 133.70,35.41 133.55,35.20 C 133.39,34.99 133.16,34.69 133.04,34.52 C 132.32,33.55 131.08,32.26 129.70,31.04 C 129.31,30.70 128.50,30.08 127.75,29.57 C 126.68,28.83 126.52,28.73 126.19,28.58 C 125.99,28.49 125.73,28.34 125.61,28.25 C 125.49,28.15 125.26,28.03 125.10,27.98 C 124.95,27.92 124.72,27.80 124.60,27.71 C 124.48,27.62 124.26,27.51 124.11,27.47 C 123.96,27.42 123.72,27.31 123.57,27.23 C 123.43,27.14 123.20,27.04 123.06,27 C 122.83,26.93 122.60,26.62 122.60,26.40 C 122.60,26.35 122.52,26.14 122.43,25.92 C 122.34,25.70 122.23,25.36 122.19,25.16 C 122.14,24.97 122.01,24.62 121.89,24.38 C 121.76,24.15 121.66,23.91 121.66,23.85 C 121.66,23.73 121.21,22.70 120.95,22.22 C 120.86,22.05 120.70,21.73 120.59,21.50 C 120.48,21.27 120.36,21.07 120.32,21.04 C 120.28,21.02 120.15,20.82 120.03,20.62 C 119.68,19.95 119.47,19.61 119.28,19.38 C 119.18,19.26 118.94,18.93 118.74,18.65 C 118.08,17.74 117.62,17.20 116.51,16.06 C 116.13,15.66 115.06,14.73 114.49,14.28 C 114.28,14.11 114,13.88 113.86,13.77 C 113.74,13.66 113.50,13.50 113.35,13.40 C 112.73,13.04 112.61,12.96 112.34,12.75 C 112.20,12.63 111.91,12.45 111.71,12.36 C 111.52,12.27 111.28,12.14 111.19,12.06 C 111.09,11.99 110.90,11.89 110.77,11.85 C 110.63,11.81 110.39,11.69 110.22,11.59 C 110.05,11.48 109.79,11.36 109.65,11.32 C 109.50,11.27 109.25,11.15 109.09,11.04 C 108.93,10.94 108.64,10.82 108.46,10.78 C 108.28,10.74 107.98,10.64 107.81,10.55 C 107.63,10.46 107.24,10.34 106.93,10.27 C 106.62,10.21 106.17,10.08 105.93,10 C 105.69,9.90 105.06,9.76 104.54,9.67 C 104.02,9.58 103.38,9.46 103.12,9.41 C 102.86,9.34 102.32,9.28 101.91,9.26 C 100.91,9.20 100.81,9.17 100.42,8.68 C 100.01,8.17 97.98,6 97.91,6 C 97.88,6 97.55,5.74 97.18,5.41 C 96.40,4.74 96.01,4.43 95.69,4.23 C 95.57,4.15 95.31,3.98 95.12,3.85 C 94.73,3.59 94.26,3.28 93.83,3.01 C 93.67,2.92 93.42,2.79 93.25,2.74 C 93.10,2.68 92.86,2.56 92.74,2.46 C 92.62,2.37 92.35,2.23 92.16,2.16 C 91.96,2.10 91.71,1.98 91.60,1.90 C 91.50,1.82 91.15,1.67 90.84,1.57 C 90.52,1.46 90.04,1.30 89.76,1.20 C 88.67,0.83 87.95,0.62 87.44,0.55 C 86.86,0.46 86.30,0.25 86.24,0.11 C 86.18,-0.04 77.95,-0.04 77.90,0.11 C 77.83,0.28 77.48,0.41 76.67,0.56 C 76.23,0.63 75.72,0.75 75.53,0.83 C 75.34,0.90 74.95,1.03 74.65,1.12 C 73.75,1.39 72.84,1.74 72.46,1.95 C 72.26,2.06 72.03,2.17 71.93,2.20 C 71.84,2.23 71.67,2.32 71.55,2.41 C 71.43,2.49 71.18,2.63 70.98,2.71 C 70.78,2.78 70.57,2.88 70.52,2.94 C 70.46,2.99 70.26,3.10 70.07,3.19 C 69.89,3.29 69.64,3.44 69.52,3.54 C 69.25,3.77 68.97,3.77 68.69,3.52 C 68.48,3.34 68.22,3.19 67.38,2.78 C 67.13,2.65 66.85,2.49 66.76,2.43 C 66.68,2.36 66.43,2.24 66.23,2.16 C 66.02,2.08 65.77,1.96 65.66,1.89 C 65.48,1.76 65.07,1.61 63.92,1.22 C 63.68,1.14 63.26,1 62.98,0.91 C 62.71,0.81 62.13,0.67 61.70,0.58 C 60.73,0.40 60.44,0.30 60.36,0.14 C 60.29,0.02 60.16,0.01 56.15,0.01 C 53.68,0.01 52.01,0.04 52.01,0.07 M 58.51,7.71 C 58.73,7.76 59.33,7.90 59.85,8.02 C 60.37,8.14 60.91,8.29 61.04,8.36 C 61.18,8.44 61.51,8.56 61.78,8.65 C 62.71,8.95 63.82,9.50 64.43,9.95 C 64.59,10.06 64.82,10.21 64.95,10.28 C 65.18,10.40 65.52,10.65 65.98,11.05 C 66.14,11.17 66.45,11.43 66.68,11.62 C 66.91,11.80 67.17,12.02 67.25,12.10 C 67.89,12.72 68.80,13.49 68.96,13.54 C 69.26,13.65 69.51,13.50 70.32,12.72 C 70.71,12.35 71.13,11.97 71.26,11.89 C 71.39,11.80 71.68,11.55 71.90,11.34 C 72.32,10.93 72.70,10.64 73.21,10.33 C 73.38,10.24 73.59,10.10 73.68,10.03 C 73.77,9.96 74,9.82 74.18,9.73 C 74.37,9.63 74.62,9.48 74.72,9.40 C 74.84,9.32 75.09,9.19 75.30,9.12 C 75.50,9.04 75.89,8.88 76.17,8.77 C 77.23,8.34 77.77,8.16 78.32,8.05 C 78.64,7.99 79.11,7.88 79.37,7.81 C 80.47,7.50 83.67,7.49 84.72,7.78 C 84.92,7.84 85.44,7.97 85.87,8.05 C 86.31,8.14 86.77,8.27 86.92,8.35 C 87.06,8.42 87.40,8.54 87.68,8.62 C 87.95,8.71 88.28,8.83 88.39,8.90 C 88.51,8.97 88.77,9.09 88.96,9.16 C 89.16,9.22 89.48,9.38 89.67,9.51 C 90.13,9.81 90.38,9.96 90.83,10.21 C 91.53,10.58 91.30,10.96 90.20,11.32 C 90.05,11.36 89.79,11.50 89.61,11.62 C 89.44,11.74 89.20,11.85 89.07,11.88 C 88.94,11.90 88.69,12.03 88.51,12.16 C 88.33,12.29 88.15,12.39 88.12,12.39 C 88.04,12.39 87.36,12.82 86.98,13.11 C 86.83,13.23 86.57,13.41 86.40,13.50 C 86.23,13.59 85.94,13.80 85.75,13.95 C 85.55,14.12 85.15,14.44 84.85,14.68 C 84.55,14.92 80.91,18.50 76.78,22.63 C 72.32,27.09 69.20,30.16 69.13,30.16 C 69.06,30.16 67.46,28.61 65.27,26.44 C 61.18,22.36 61.05,22.24 60.12,22.05 C 58.36,21.68 56.82,22.36 55.80,23.99 C 55.44,24.57 55.38,24.81 55.38,25.85 C 55.38,27.47 55.21,27.23 59.79,31.83 C 63.76,35.82 63.72,35.77 63.37,36.07 C 63.28,36.15 61.41,38.01 59.20,40.22 C 55.45,43.95 55.16,44.22 54.95,44.22 C 54.73,44.22 54.41,43.91 49.93,39.42 C 47.29,36.79 44.91,34.38 44.63,34.07 C 44.34,33.76 44.02,33.41 43.91,33.29 C 43.80,33.16 43.62,32.94 43.52,32.77 C 43.27,32.37 43.04,32.05 42.84,31.81 C 42.75,31.69 42.61,31.48 42.53,31.32 C 42.45,31.16 42.30,30.89 42.19,30.72 C 42.08,30.55 41.97,30.32 41.95,30.20 C 41.92,30.08 41.82,29.83 41.71,29.65 C 41.61,29.46 41.48,29.16 41.43,28.97 C 41.38,28.78 41.27,28.51 41.19,28.35 C 41.11,28.21 40.97,27.73 40.88,27.32 C 40.79,26.90 40.66,26.39 40.61,26.19 C 40.31,25.17 40.33,21.40 40.64,20.37 C 40.72,20.10 40.84,19.62 40.90,19.28 C 40.98,18.94 41.11,18.52 41.20,18.33 C 41.29,18.16 41.40,17.86 41.45,17.67 C 41.50,17.49 41.61,17.22 41.70,17.06 C 41.78,16.91 41.91,16.61 41.99,16.40 C 42.06,16.17 42.18,15.94 42.26,15.86 C 42.32,15.78 42.43,15.61 42.49,15.47 C 42.55,15.33 42.68,15.12 42.79,15 C 42.89,14.88 43.04,14.66 43.12,14.51 C 43.19,14.36 43.31,14.20 43.37,14.14 C 43.43,14.09 43.54,13.94 43.60,13.81 C 43.67,13.68 43.80,13.50 43.89,13.43 C 43.97,13.35 44.24,13.07 44.48,12.80 C 44.85,12.38 46.23,11.11 46.91,10.57 C 47.03,10.47 47.29,10.31 47.49,10.22 C 47.67,10.12 47.85,10.01 47.88,9.97 C 47.90,9.93 48.08,9.82 48.27,9.72 C 48.46,9.63 48.71,9.48 48.82,9.40 C 48.93,9.32 49.14,9.21 49.29,9.16 C 49.44,9.12 49.71,9 49.88,8.91 C 50.06,8.83 50.41,8.69 50.65,8.61 C 50.90,8.54 51.22,8.42 51.36,8.34 C 51.50,8.27 51.91,8.15 52.27,8.08 C 52.63,8.01 53.14,7.88 53.42,7.81 C 53.70,7.73 54.18,7.64 54.50,7.62 C 55.35,7.53 58.02,7.60 58.51,7.71 M 101.03,16.90 C 102.22,17.05 103.89,17.37 104.27,17.53 C 104.49,17.61 104.84,17.73 105.04,17.78 C 105.25,17.82 105.52,17.92 105.66,17.99 C 105.80,18.06 106.13,18.19 106.40,18.28 C 106.65,18.37 106.92,18.49 106.98,18.54 C 107.04,18.60 107.24,18.71 107.41,18.79 C 107.58,18.86 107.81,18.99 107.91,19.08 C 108.01,19.17 108.25,19.32 108.44,19.40 C 108.64,19.50 108.98,19.72 109.20,19.90 C 109.43,20.08 109.73,20.32 109.87,20.42 C 110.68,21.04 112.09,22.53 112.61,23.32 C 112.75,23.54 112.95,23.82 113.04,23.96 C 113.12,24.09 113.26,24.28 113.35,24.37 C 113.43,24.46 113.55,24.67 113.61,24.83 C 113.68,25 113.78,25.22 113.86,25.32 C 113.93,25.42 114.03,25.64 114.09,25.80 C 114.15,25.95 114.28,26.24 114.39,26.44 C 114.50,26.62 114.63,26.93 114.67,27.11 C 114.71,27.28 114.83,27.61 114.93,27.82 C 115.05,28.06 115.15,28.44 115.20,28.80 C 115.24,29.12 115.35,29.73 115.45,30.16 C 115.71,31.25 115.73,34.20 115.49,35.16 C 115.40,35.48 115.28,36.06 115.23,36.47 C 115.16,36.95 115.06,37.32 114.93,37.60 C 114.82,37.82 114.70,38.15 114.65,38.34 C 114.61,38.52 114.49,38.80 114.38,38.97 C 114.28,39.14 114.15,39.40 114.09,39.56 C 114.04,39.71 113.92,39.95 113.82,40.10 C 113.74,40.24 113.64,40.43 113.62,40.53 C 113.59,40.63 113.47,40.83 113.35,40.97 C 113.23,41.11 113.08,41.33 113.01,41.46 C 112.94,41.59 112.81,41.79 112.71,41.91 C 112.62,42.03 112.40,42.30 112.24,42.51 C 112.07,42.73 108.68,46.16 104.72,50.14 C 100.75,54.12 97.45,57.44 97.40,57.52 C 97.28,57.70 96.88,57.84 96.69,57.78 C 96.46,57.70 88.92,50.09 88.90,49.91 C 88.88,49.77 89.46,49.17 92.51,46.12 C 96.77,41.84 96.77,41.85 97.03,40.83 C 97.20,40.15 97.20,39.95 97,39.19 C 96.59,37.58 95.03,36.21 93.50,36.11 C 92.33,36.02 91.75,36.20 90.95,36.88 C 90.76,37.04 81.22,46.54 69.75,57.99 C 58.28,69.45 48.74,78.94 48.55,79.10 C 48.36,79.25 48.01,79.54 47.78,79.73 C 47.55,79.93 47.24,80.15 47.08,80.23 C 46.93,80.31 46.74,80.42 46.67,80.48 C 46.35,80.76 44.45,81.71 43.99,81.83 C 43.81,81.87 43.50,81.98 43.30,82.08 C 43.09,82.17 42.65,82.30 42.31,82.38 C 41.97,82.45 41.48,82.57 41.21,82.64 C 39.90,83.01 36.61,83 35.27,82.63 C 34.98,82.56 34.47,82.44 34.14,82.37 C 33.79,82.30 33.36,82.16 33.18,82.07 C 33,81.98 32.70,81.87 32.52,81.83 C 32.02,81.73 30.20,80.78 29.73,80.39 C 29.62,80.29 29.49,80.22 29.45,80.22 C 29.29,80.22 27.56,78.80 27.09,78.27 C 26.47,77.59 25.78,76.76 25.58,76.48 C 25.46,76.30 25.26,75.99 25.13,75.81 C 25,75.62 24.84,75.35 24.77,75.21 C 24.69,75.06 24.56,74.84 24.47,74.71 C 24.37,74.58 24.26,74.37 24.22,74.24 C 24.17,74.10 24.06,73.83 23.95,73.62 C 23.85,73.42 23.73,73.11 23.69,72.95 C 23.64,72.78 23.53,72.52 23.44,72.37 C 23.35,72.21 23.21,71.81 23.15,71.49 C 23.07,71.16 22.94,70.65 22.85,70.35 C 22.42,68.93 22.45,64.57 22.90,63.52 C 22.95,63.38 23.05,63.03 23.11,62.74 C 23.18,62.46 23.32,62.05 23.42,61.85 C 23.52,61.64 23.64,61.34 23.69,61.18 C 23.73,61.02 23.87,60.70 23.99,60.46 C 24.12,60.21 24.22,59.99 24.22,59.94 C 24.22,59.84 24.74,59.02 24.98,58.72 C 25.07,58.61 25.21,58.38 25.30,58.22 C 25.38,58.05 25.56,57.79 25.68,57.64 C 25.81,57.50 26.03,57.24 26.16,57.08 C 26.38,56.82 26.97,56.21 28.36,54.79 C 28.56,54.58 31.35,51.80 34.55,48.60 C 37.76,45.40 40.54,42.61 40.74,42.39 C 41.39,41.70 41.01,41.42 45.34,45.73 C 47.40,47.79 49.16,49.52 49.24,49.58 C 49.59,49.82 49.60,49.81 45.71,53.71 C 43.68,55.74 41.91,57.55 41.78,57.72 C 41.44,58.18 41.08,59.21 41.09,59.73 C 41.10,60.87 42.04,62.49 43.03,63.08 C 43.15,63.14 43.33,63.26 43.45,63.34 C 43.91,63.63 45.15,63.74 46.05,63.57 C 46.74,63.44 47.11,63.16 48.51,61.75 C 49.13,61.13 49.82,60.44 50.06,60.21 C 50.29,59.99 59.20,51.09 69.85,40.45 C 88.11,22.22 90.19,20.16 90.63,19.94 C 90.72,19.89 90.88,19.77 90.97,19.69 C 91.07,19.61 91.30,19.46 91.49,19.36 C 91.68,19.27 91.86,19.16 91.89,19.11 C 91.91,19.07 92.09,18.97 92.28,18.89 C 92.47,18.80 92.72,18.65 92.85,18.56 C 92.98,18.46 93.25,18.33 93.46,18.27 C 93.66,18.21 93.97,18.10 94.14,18.01 C 94.30,17.93 94.65,17.81 94.91,17.74 C 95.17,17.68 95.49,17.57 95.63,17.50 C 95.83,17.40 97.99,16.98 98.85,16.88 C 99.30,16.83 100.56,16.84 101.03,16.90 M 33.20,17.95 C 33.33,18.09 33.34,18.07 33.14,18.76 C 32.68,20.41 32.63,25.82 33.07,27.73 C 33.13,27.98 33.25,28.53 33.34,28.97 C 33.44,29.40 33.57,29.87 33.64,30.02 C 33.72,30.17 33.83,30.49 33.89,30.74 C 33.94,31 34.07,31.35 34.18,31.54 C 34.28,31.72 34.40,32.03 34.44,32.24 C 34.49,32.44 34.63,32.80 34.75,33.04 C 34.88,33.29 35.04,33.60 35.10,33.72 C 35.27,34.10 35.68,34.83 35.89,35.13 C 36.10,35.43 36.19,35.92 36.09,36.11 C 36.05,36.18 34.22,38.03 32.02,40.22 C 27.45,44.79 27.82,44.52 27.24,43.90 C 26.17,42.73 25.56,41.99 25.30,41.56 C 25.21,41.40 25.04,41.14 24.94,40.98 C 24.39,40.16 24.29,39.99 24.20,39.74 C 24.15,39.59 24.01,39.29 23.89,39.07 C 23.78,38.86 23.69,38.62 23.69,38.54 C 23.69,38.46 23.58,38.18 23.45,37.91 C 23.32,37.65 23.19,37.24 23.15,37.01 C 23.10,36.77 23,36.36 22.90,36.09 C 22.66,35.34 22.59,34.59 22.59,32.71 C 22.59,30.87 22.66,30.18 22.91,29.36 C 23,29.07 23.11,28.65 23.15,28.41 C 23.19,28.17 23.30,27.84 23.38,27.67 C 23.46,27.50 23.60,27.16 23.69,26.90 C 23.77,26.64 23.93,26.27 24.03,26.07 C 24.14,25.87 24.22,25.66 24.22,25.59 C 24.22,25.53 24.34,25.31 24.49,25.08 C 24.64,24.87 24.76,24.65 24.76,24.61 C 24.76,24.57 24.86,24.41 24.99,24.26 C 25.11,24.12 25.28,23.88 25.36,23.73 C 25.57,23.36 25.97,22.80 26.18,22.61 C 26.27,22.51 26.48,22.28 26.65,22.09 C 27.50,21.09 29.17,19.68 29.84,19.39 C 29.99,19.33 30.16,19.22 30.21,19.16 C 30.27,19.09 30.48,18.96 30.68,18.87 C 30.89,18.78 31.13,18.65 31.23,18.58 C 31.33,18.50 31.62,18.37 31.86,18.27 C 32.11,18.19 32.43,18.05 32.56,17.98 C 32.86,17.82 33.07,17.81 33.20,17.95 M 15.03,36.15 C 15.06,36.18 15.11,36.44 15.15,36.73 C 15.17,37.02 15.26,37.43 15.33,37.64 C 15.41,37.85 15.52,38.29 15.58,38.61 C 15.64,38.94 15.77,39.40 15.87,39.64 C 15.97,39.89 16.10,40.25 16.15,40.45 C 16.20,40.65 16.30,40.96 16.38,41.12 C 16.47,41.29 16.59,41.61 16.65,41.82 C 16.71,42.05 16.85,42.35 16.95,42.50 C 17.06,42.65 17.18,42.89 17.23,43.04 C 17.27,43.19 17.39,43.42 17.49,43.55 C 17.60,43.67 17.74,43.92 17.82,44.09 C 18.05,44.56 18.39,45.12 18.57,45.34 C 18.67,45.46 18.82,45.68 18.93,45.84 C 19.37,46.54 19.86,47.17 21.08,48.55 C 21.44,48.96 21.82,49.36 21.91,49.43 C 22.17,49.62 22.23,49.84 22.09,50.12 C 22.03,50.25 21.94,50.37 21.90,50.39 C 21.81,50.42 20.16,52.27 19.82,52.72 C 19.55,53.08 19.20,53.56 18.89,54 C 18.75,54.21 18.61,54.39 18.57,54.41 C 18.50,54.45 18.40,54.64 17.83,55.71 C 17.74,55.89 17.58,56.15 17.48,56.30 C 17.38,56.45 17.26,56.67 17.22,56.80 C 17.17,56.93 17.06,57.16 16.96,57.31 C 16.86,57.46 16.72,57.76 16.65,57.98 C 16.59,58.20 16.49,58.49 16.41,58.63 C 16.34,58.77 16.22,59.12 16.14,59.41 C 16.06,59.70 15.94,60.05 15.87,60.19 C 15.79,60.34 15.66,60.77 15.58,61.17 C 15.08,63.40 15.01,63.48 14.17,62.76 C 13.98,62.59 13.53,62.20 13.17,61.89 C 12.11,60.96 10.77,59.38 10.23,58.39 C 10.15,58.25 9.99,58.01 9.88,57.86 C 9.78,57.71 9.69,57.56 9.69,57.51 C 9.69,57.46 9.60,57.29 9.49,57.13 C 9.37,56.97 9.24,56.67 9.18,56.47 C 9.12,56.26 8.98,55.93 8.88,55.73 C 8.78,55.52 8.65,55.15 8.59,54.89 C 8.53,54.64 8.41,54.31 8.34,54.18 C 8.27,54.04 8.14,53.49 8.04,52.95 C 7.95,52.42 7.83,51.74 7.77,51.42 C 7.61,50.60 7.61,48.57 7.77,47.72 C 7.83,47.37 7.95,46.68 8.04,46.20 C 8.13,45.71 8.26,45.17 8.34,45 C 8.41,44.83 8.53,44.48 8.59,44.23 C 8.65,43.98 8.78,43.63 8.88,43.45 C 8.98,43.26 9.09,42.98 9.12,42.83 C 9.14,42.67 9.24,42.42 9.33,42.29 C 9.43,42.15 9.57,41.90 9.64,41.74 C 9.76,41.46 10.19,40.77 10.48,40.38 C 10.56,40.29 10.67,40.11 10.73,39.98 C 10.80,39.85 10.96,39.62 11.10,39.48 C 11.23,39.32 11.46,39.05 11.61,38.88 C 12.17,38.18 12.53,37.79 12.68,37.69 C 12.76,37.64 13.02,37.40 13.26,37.17 C 13.50,36.95 13.81,36.67 13.96,36.56 C 14.11,36.45 14.28,36.31 14.33,36.25 C 14.51,36.03 14.85,35.98 15.03,36.15 M 124.75,36.97 C 125.75,37.86 126.80,38.98 127.28,39.67 C 127.42,39.89 127.67,40.24 127.83,40.45 C 127.99,40.67 128.12,40.87 128.12,40.90 C 128.12,40.94 128.22,41.10 128.35,41.27 C 128.47,41.43 128.62,41.71 128.68,41.90 C 128.74,42.08 128.86,42.34 128.95,42.47 C 129.04,42.60 129.15,42.84 129.19,43.01 C 129.24,43.18 129.35,43.46 129.46,43.65 C 129.56,43.83 129.68,44.17 129.73,44.39 C 129.78,44.61 129.89,44.97 129.98,45.19 C 130.22,45.77 130.49,48.12 130.49,49.60 C 130.48,51.10 130.22,53.37 129.98,53.96 C 129.89,54.19 129.77,54.56 129.73,54.76 C 129.68,54.98 129.55,55.35 129.43,55.59 C 129.31,55.83 129.19,56.12 129.16,56.24 C 129.14,56.35 129.04,56.55 128.95,56.67 C 128.86,56.80 128.74,57.05 128.69,57.23 C 128.63,57.41 128.51,57.66 128.40,57.80 C 128.29,57.93 128.18,58.11 128.16,58.20 C 128.13,58.28 128.04,58.43 127.95,58.54 C 127.77,58.75 127.46,59.18 127.13,59.70 C 126.82,60.16 125.36,61.72 124.95,62.01 C 124.79,62.13 124.44,62.43 124.17,62.67 C 123.91,62.91 123.61,63.13 123.51,63.15 C 123.30,63.21 123.04,63.07 122.98,62.88 C 122.92,62.67 122.81,62.04 122.73,61.41 C 122.69,61.08 122.57,60.64 122.48,60.44 C 122.40,60.23 122.28,59.87 122.22,59.63 C 122.16,59.39 122.05,59.06 121.95,58.91 C 121.87,58.75 121.72,58.42 121.65,58.17 C 121.57,57.92 121.45,57.64 121.39,57.54 C 121.33,57.45 121.22,57.21 121.15,57 C 121.08,56.80 120.96,56.54 120.88,56.43 C 120.80,56.32 120.65,56.08 120.56,55.88 C 120.46,55.69 120.35,55.52 120.31,55.49 C 120.27,55.46 120.15,55.28 120.03,55.07 C 119.74,54.50 119.17,53.67 118.64,53.01 C 118.52,52.85 118.31,52.58 118.17,52.40 C 117.96,52.12 117.64,51.77 116.51,50.55 C 115.96,49.95 115.96,49.86 116.48,49.28 C 116.71,49.03 117.11,48.59 117.38,48.29 C 118.15,47.46 118.99,46.38 119.42,45.70 C 119.52,45.53 119.70,45.27 119.82,45.11 C 119.94,44.95 120.04,44.78 120.04,44.73 C 120.04,44.68 120.15,44.50 120.28,44.31 C 120.41,44.13 120.57,43.88 120.62,43.75 C 120.67,43.62 120.78,43.45 120.85,43.38 C 120.92,43.30 121.04,43.06 121.12,42.84 C 121.19,42.63 121.32,42.34 121.39,42.21 C 121.47,42.07 121.60,41.78 121.66,41.56 C 121.74,41.33 121.87,41.01 121.95,40.85 C 122.05,40.69 122.17,40.35 122.22,40.10 C 122.28,39.85 122.38,39.53 122.46,39.39 C 122.61,39.09 122.70,38.67 122.80,37.87 C 122.84,37.55 122.90,37.22 122.93,37.13 C 122.96,37.05 123,36.84 123.03,36.66 C 123.10,36.24 123.33,35.98 123.59,36.05 C 123.69,36.08 124.21,36.49 124.75,36.97 M 88.56,60.62 C 93.44,65.50 93.91,66 94.49,66.73 C 94.63,66.92 94.85,67.20 94.98,67.36 C 95.11,67.52 95.27,67.75 95.33,67.86 C 95.39,67.98 95.52,68.18 95.62,68.31 C 95.72,68.44 95.83,68.63 95.85,68.73 C 95.88,68.82 96,69.06 96.13,69.26 C 96.26,69.45 96.36,69.65 96.36,69.71 C 96.36,69.76 96.48,70.02 96.63,70.30 C 96.77,70.58 96.89,70.85 96.89,70.91 C 96.89,70.97 96.99,71.24 97.10,71.53 C 97.24,71.87 97.35,72.34 97.44,72.91 C 97.51,73.39 97.61,73.95 97.67,74.16 C 97.94,75.20 97.95,77.30 97.70,78.54 C 97.62,78.89 97.50,79.56 97.43,80.04 C 97.36,80.51 97.24,81.01 97.17,81.15 C 97.10,81.28 96.98,81.63 96.89,81.90 C 96.81,82.18 96.69,82.49 96.62,82.59 C 96.54,82.69 96.44,82.90 96.38,83.06 C 96.33,83.22 96.21,83.46 96.12,83.60 C 96.03,83.74 95.90,83.99 95.83,84.17 C 95.71,84.49 95.62,84.63 94.86,85.66 C 94.20,86.54 94.08,86.69 93.77,87.02 C 93.33,87.48 92.18,88.56 91.92,88.75 C 91.79,88.85 91.57,89.03 91.42,89.15 C 91.29,89.27 91.14,89.37 91.11,89.37 C 91.07,89.37 90.85,89.50 90.61,89.65 C 90.37,89.81 90.08,90.01 89.95,90.09 C 89.61,90.31 88.22,90.99 88.10,90.99 C 88.05,90.99 87.76,91.09 87.48,91.21 C 87.20,91.34 86.82,91.48 86.63,91.52 C 86.45,91.57 86.03,91.69 85.69,91.79 C 84.21,92.25 80.31,92.31 78.81,91.90 C 77.66,91.58 77.17,91.44 76.88,91.31 C 76.69,91.23 76.30,91.09 76,90.99 C 75.37,90.76 73.88,89.97 73.55,89.67 C 73.45,89.59 73.27,89.46 73.14,89.40 C 72.87,89.27 72.62,89.07 71.84,88.39 C 71.54,88.13 71.15,87.82 70.98,87.69 C 70.79,87.58 70.65,87.46 70.65,87.43 C 70.65,87.40 70.33,87.10 69.94,86.75 C 69.33,86.23 69.20,86.13 69.05,86.17 C 68.96,86.19 68.34,86.70 67.66,87.30 C 67,87.89 66.33,88.48 66.18,88.60 C 65.38,89.28 65.26,89.37 65.17,89.37 C 65.12,89.37 64.97,89.46 64.83,89.58 C 64.26,90.02 62.71,90.85 62.17,90.99 C 62.01,91.03 61.71,91.15 61.50,91.25 C 61.30,91.36 60.89,91.49 60.59,91.56 C 60.30,91.62 59.91,91.73 59.73,91.80 C 58.45,92.30 53.94,92.28 52.45,91.77 C 52.19,91.68 51.80,91.57 51.58,91.52 C 51.35,91.48 51,91.36 50.80,91.25 C 50.60,91.15 50.28,91.03 50.10,90.99 C 49.75,90.89 48.74,90.39 48.28,90.10 C 48.13,90 47.77,89.78 47.49,89.61 C 46.79,89.17 46.77,88.94 47.44,88.76 C 47.61,88.72 47.81,88.63 47.92,88.56 C 48.01,88.49 48.25,88.37 48.45,88.29 C 48.64,88.21 48.88,88.09 48.99,88.02 C 49.09,87.96 49.33,87.83 49.53,87.76 C 49.73,87.67 49.95,87.55 50.03,87.49 C 50.10,87.42 50.29,87.30 50.45,87.23 C 50.61,87.16 50.84,87.02 50.96,86.91 C 51.07,86.81 51.41,86.58 51.72,86.39 C 52.01,86.19 52.39,85.93 52.55,85.80 C 52.91,85.51 53.39,85.10 53.80,84.76 C 53.98,84.61 57.44,81.17 61.51,77.11 C 65.57,73.05 68.96,69.70 69.03,69.65 C 69.20,69.57 69.23,69.59 70.92,71.30 C 71.57,71.96 72.27,72.66 72.50,72.87 C 72.71,73.08 73.76,74.12 74.82,75.17 C 75.89,76.23 76.86,77.16 76.97,77.24 C 77.32,77.51 78.32,77.87 78.79,77.91 C 79.33,77.95 80.55,77.58 80.95,77.27 C 81.08,77.16 81.28,77.03 81.38,76.97 C 81.99,76.66 82.79,75.29 82.91,74.39 C 83.01,73.64 82.90,72.91 82.64,72.49 C 82.54,72.31 82.41,72.08 82.37,71.97 C 82.32,71.85 81.94,71.42 81.53,71.02 C 81.12,70.61 80.72,70.21 80.64,70.12 C 80.56,70.03 80.31,69.78 80.07,69.55 C 79.83,69.33 79.47,68.97 79.26,68.75 C 79.06,68.52 78.69,68.16 78.45,67.94 C 78.22,67.72 77.85,67.35 77.65,67.13 C 77.44,66.91 77.10,66.56 76.88,66.36 C 76.65,66.15 76.30,65.81 76.10,65.58 C 75.89,65.36 75.50,64.98 75.23,64.74 C 74.68,64.22 74.60,63.93 74.93,63.65 C 75.03,63.57 76.90,61.71 79.09,59.52 C 81.28,57.33 83.13,55.52 83.17,55.51 C 83.23,55.49 83.32,55.49 83.38,55.50 C 83.44,55.52 85.77,57.83 88.56,60.62 M 111.21,56.11 C 111.52,56.44 111.95,56.93 112.17,57.21 C 112.39,57.48 112.64,57.81 112.73,57.91 C 112.82,58.03 112.96,58.24 113.05,58.38 C 113.13,58.53 113.26,58.71 113.33,58.79 C 113.52,59.01 114.58,61.17 114.67,61.51 C 114.71,61.68 114.83,61.98 114.93,62.19 C 115.06,62.44 115.15,62.80 115.22,63.30 C 115.28,63.71 115.41,64.29 115.49,64.61 C 115.73,65.54 115.71,68.65 115.45,69.65 C 115.36,70.05 115.26,70.56 115.23,70.80 C 115.21,71.04 115.12,71.44 115.02,71.71 C 114.93,71.96 114.78,72.39 114.69,72.64 C 114.60,72.89 114.46,73.23 114.37,73.38 C 114.28,73.53 114.17,73.78 114.12,73.93 C 114.07,74.08 113.98,74.28 113.91,74.38 C 113.84,74.48 113.70,74.74 113.61,74.95 C 113.51,75.17 113.37,75.41 113.29,75.50 C 113.22,75.58 113.09,75.74 113.02,75.87 C 112.55,76.63 112.20,77.06 111.48,77.82 C 111.24,78.09 110.98,78.37 110.91,78.45 C 110.80,78.58 110.41,78.93 109.79,79.43 C 109.65,79.55 109.42,79.74 109.28,79.86 C 109.15,79.97 108.89,80.15 108.70,80.24 C 108.52,80.33 108.27,80.49 108.14,80.58 C 108.01,80.68 107.88,80.76 107.84,80.76 C 107.81,80.76 107.60,80.88 107.38,81.03 C 107.16,81.17 106.94,81.30 106.90,81.30 C 106.86,81.30 106.62,81.40 106.36,81.53 C 104.99,82.20 104.80,82.04 105.17,80.53 C 105.45,79.38 105.52,78.56 105.52,76.48 C 105.53,74.57 105.45,73.45 105.25,72.68 C 105.17,72.41 105.04,71.78 104.97,71.30 C 104.89,70.82 104.75,70.21 104.66,69.96 C 104.57,69.70 104.45,69.30 104.40,69.08 C 104.35,68.86 104.23,68.54 104.14,68.38 C 104.05,68.21 103.93,67.94 103.89,67.77 C 103.85,67.60 103.73,67.31 103.62,67.13 C 103.52,66.94 103.38,66.63 103.32,66.41 C 103.26,66.20 103.17,66 103.13,65.96 C 103.07,65.91 102.96,65.73 102.88,65.53 C 102.80,65.33 102.65,65.07 102.55,64.94 C 102.28,64.61 102,64.02 102.02,63.86 C 102.04,63.76 108.56,57.16 109.93,55.85 C 110.43,55.38 110.52,55.39 111.21,56.11" fill="#FFFFFF"/></g><g transform="translate(167.810 80.000) scale(0.082192)" fill="#FFFFFF"><path d="M46.0 0.0V-122.0L449.0 -610.0L451.0 -589.0L421.0 -629.0L441.0 -613.0H58.0V-730.0H606.0V-608.0L202.0 -121.0L199.0 -144.0L232.0 -99.0L208.0 -117.0H611.0V0.0Z"/><path d="M949.0 19.0Q879.0 19.0 826.5 -5.0Q774.0 -29.0 739.5 -69.5Q705.0 -110.0 687.5 -160.0Q670.0 -210.0 670.0 -262.0V-281.0Q670.0 -335.0 687.5 -385.5Q705.0 -436.0 739.5 -475.5Q774.0 -515.0 825.0 -538.5Q876.0 -562.0 943.0 -562.0Q1031.0 -562.0 1090.5 -523.5Q1150.0 -485.0 1180.0 -422.5Q1210.0 -360.0 1210.0 -288.0V-238.0H729.0V-323.0H1123.0L1080.0 -281.0Q1080.0 -333.0 1065.0 -370.0Q1050.0 -407.0 1019.5 -427.0Q989.0 -447.0 943.0 -447.0Q897.0 -447.0 865.0 -426.0Q833.0 -405.0 816.5 -365.5Q800.0 -326.0 800.0 -271.0Q800.0 -220.0 816.0 -180.5Q832.0 -141.0 865.0 -118.5Q898.0 -96.0 949.0 -96.0Q1000.0 -96.0 1032.0 -116.5Q1064.0 -137.0 1073.0 -167.0H1201.0Q1189.0 -111.0 1155.0 -69.0Q1121.0 -27.0 1068.5 -4.0Q1016.0 19.0 949.0 19.0Z"/><path d="M1311.0 0.0V-543.0H1421.0V-310.0H1411.0Q1411.0 -393.0 1433.0 -448.5Q1455.0 -504.0 1498.5 -532.0Q1542.0 -560.0 1607.0 -560.0H1613.0Q1710.0 -560.0 1760.0 -497.5Q1810.0 -435.0 1810.0 -311.0V0.0H1671.0V-323.0Q1671.0 -373.0 1642.5 -404.0Q1614.0 -435.0 1564.0 -435.0Q1513.0 -435.0 1481.5 -403.5Q1450.0 -372.0 1450.0 -319.0V0.0Z"/><path d="M2169.0 18.0Q2112.0 18.0 2064.0 -3.0Q2016.0 -24.0 1981.0 -62.0Q1946.0 -100.0 1927.0 -150.5Q1908.0 -201.0 1908.0 -260.0V-281.0Q1908.0 -339.0 1926.5 -390.0Q1945.0 -441.0 1978.5 -479.0Q2012.0 -517.0 2059.5 -538.5Q2107.0 -560.0 2165.0 -560.0Q2229.0 -560.0 2277.5 -532.5Q2326.0 -505.0 2355.0 -450.0Q2384.0 -395.0 2387.0 -312.0L2346.0 -360.0V-730.0H2485.0V0.0H2375.0V-231.0H2399.0Q2396.0 -148.0 2365.0 -92.5Q2334.0 -37.0 2283.5 -9.5Q2233.0 18.0 2169.0 18.0ZM2200.0 -99.0Q2241.0 -99.0 2275.0 -117.5Q2309.0 -136.0 2329.5 -171.5Q2350.0 -207.0 2350.0 -255.0V-295.0Q2350.0 -343.0 2329.0 -375.5Q2308.0 -408.0 2274.0 -425.5Q2240.0 -443.0 2200.0 -443.0Q2155.0 -443.0 2120.5 -421.5Q2086.0 -400.0 2066.5 -361.0Q2047.0 -322.0 2047.0 -270.0Q2047.0 -218.0 2067.0 -179.5Q2087.0 -141.0 2121.5 -120.0Q2156.0 -99.0 2200.0 -99.0Z"/><path d="M2889.0 19.0Q2817.0 19.0 2762.0 -4.0Q2707.0 -27.0 2669.0 -66.5Q2631.0 -106.0 2611.5 -156.0Q2592.0 -206.0 2592.0 -260.0V-281.0Q2592.0 -337.0 2612.5 -387.5Q2633.0 -438.0 2671.5 -477.5Q2710.0 -517.0 2765.0 -539.5Q2820.0 -562.0 2889.0 -562.0Q2958.0 -562.0 3013.0 -539.5Q3068.0 -517.0 3106.5 -477.5Q3145.0 -438.0 3165.0 -387.5Q3185.0 -337.0 3185.0 -281.0V-260.0Q3185.0 -206.0 3165.5 -156.0Q3146.0 -106.0 3108.0 -66.5Q3070.0 -27.0 3015.0 -4.0Q2960.0 19.0 2889.0 19.0ZM2889.0 -100.0Q2940.0 -100.0 2975.0 -122.5Q3010.0 -145.0 3028.0 -183.5Q3046.0 -222.0 3046.0 -271.0Q3046.0 -321.0 3027.5 -359.5Q3009.0 -398.0 2973.5 -420.5Q2938.0 -443.0 2889.0 -443.0Q2840.0 -443.0 2804.5 -420.5Q2769.0 -398.0 2750.0 -359.5Q2731.0 -321.0 2731.0 -271.0Q2731.0 -222.0 2749.5 -183.5Q2768.0 -145.0 2803.0 -122.5Q2838.0 -100.0 2889.0 -100.0Z"/><path d="M3292.0 0.0V-543.0H3402.0V-313.0H3399.0Q3399.0 -430.0 3449.0 -490.0Q3499.0 -550.0 3596.0 -550.0H3616.0V-429.0H3578.0Q3508.0 -429.0 3469.5 -391.5Q3431.0 -354.0 3431.0 -283.0V0.0Z"/><path d="M3720.0 0.0V-543.0H3859.0V0.0ZM3644.0 -439.0V-543.0H3859.0V-439.0ZM3771.0 -608.0Q3730.0 -608.0 3710.5 -629.5Q3691.0 -651.0 3691.0 -684.0Q3691.0 -717.0 3710.5 -738.0Q3730.0 -759.0 3771.0 -759.0Q3812.0 -759.0 3831.0 -738.0Q3850.0 -717.0 3850.0 -684.0Q3850.0 -651.0 3831.0 -629.5Q3812.0 -608.0 3771.0 -608.0Z"/></g><g transform="translate(491.646 80.000) scale(0.082192)" fill="#FFFFFF"><path d="M57.0 0.0V-160.0H213.0V0.0Z"/><path d="M662.0 0.0V-161.0H639.0V-340.0Q639.0 -387.0 616.0 -410.0Q593.0 -433.0 545.0 -433.0Q520.0 -433.0 485.0 -432.0Q450.0 -431.0 414.5 -429.5Q379.0 -428.0 351.0 -426.0V-544.0Q374.0 -546.0 403.0 -548.0Q432.0 -550.0 462.5 -550.5Q493.0 -551.0 520.0 -551.0Q604.0 -551.0 659.5 -529.0Q715.0 -507.0 743.5 -460.0Q772.0 -413.0 772.0 -337.0V0.0ZM487.0 14.0Q428.0 14.0 383.5 -7.0Q339.0 -28.0 314.5 -67.0Q290.0 -106.0 290.0 -161.0Q290.0 -221.0 319.5 -259.0Q349.0 -297.0 402.5 -316.0Q456.0 -335.0 528.0 -335.0H654.0V-252.0H526.0Q478.0 -252.0 452.5 -228.5Q427.0 -205.0 427.0 -168.0Q427.0 -131.0 452.5 -108.0Q478.0 -85.0 526.0 -85.0Q555.0 -85.0 579.5 -95.5Q604.0 -106.0 620.5 -131.5Q637.0 -157.0 639.0 -201.0L673.0 -162.0Q668.0 -105.0 645.5 -66.0Q623.0 -27.0 583.5 -6.5Q544.0 14.0 487.0 14.0Z"/><path d="M932.0 0.0V-543.0H1071.0V0.0ZM856.0 -439.0V-543.0H1071.0V-439.0ZM983.0 -608.0Q942.0 -608.0 922.5 -629.5Q903.0 -651.0 903.0 -684.0Q903.0 -717.0 922.5 -738.0Q942.0 -759.0 983.0 -759.0Q1024.0 -759.0 1043.0 -738.0Q1062.0 -717.0 1062.0 -684.0Q1062.0 -651.0 1043.0 -629.5Q1024.0 -608.0 983.0 -608.0Z"/></g></svg>