<svg xmlns="http://www.w3.org/2000/svg" viewBox="-5 -5 428.52054794520546 70.0" width="428.52054794520546" height="70.0"><defs><linearGradient id="zg" x1="0" y1="0" x2="1" y2="1"><stop offset="0" stop-color="#00D084"/><stop offset="1" stop-color="#0099FF"/></linearGradient></defs><g transform="translate(0.000 60.000) scale(0.082192)" fill="#0B1220"><path d="M46.0 0.0V-122.0L449.0 -610.0L451.0 -589.0L421.0 -629.0L441.0 -613.0H58.0V-730.0H606.0V-608.0L202.0 -121.0L199.0 -144.0L232.0 -99.0L208.0 -117.0H611.0V0.0Z"/><path d="M949.0 19.0Q879.0 19.0 826.5 -5.0Q774.0 -29.0 739.5 -69.5Q705.0 -110.0 687.5 -160.0Q670.0 -210.0 670.0 -262.0V-281.0Q670.0 -335.0 687.5 -385.5Q705.0 -436.0 739.5 -475.5Q774.0 -515.0 825.0 -538.5Q876.0 -562.0 943.0 -562.0Q1031.0 -562.0 1090.5 -523.5Q1150.0 -485.0 1180.0 -422.5Q1210.0 -360.0 1210.0 -288.0V-238.0H729.0V-323.0H1123.0L1080.0 -281.0Q1080.0 -333.0 1065.0 -370.0Q1050.0 -407.0 1019.5 -427.0Q989.0 -447.0 943.0 -447.0Q897.0 -447.0 865.0 -426.0Q833.0 -405.0 816.5 -365.5Q800.0 -326.0 800.0 -271.0Q800.0 -220.0 816.0 -180.5Q832.0 -141.0 865.0 -118.5Q898.0 -96.0 949.0 -96.0Q1000.0 -96.0 1032.0 -116.5Q1064.0 -137.0 1073.0 -167.0H1201.0Q1189.0 -111.0 1155.0 -69.0Q1121.0 -27.0 1068.5 -4.0Q1016.0 19.0 949.0 19.0Z"/><path d="M1311.0 0.0V-543.0H1421.0V-310.0H1411.0Q1411.0 -393.0 1433.0 -448.5Q1455.0 -504.0 1498.5 -532.0Q1542.0 -560.0 1607.0 -560.0H1613.0Q1710.0 -560.0 1760.0 -497.5Q1810.0 -435.0 1810.0 -311.0V0.0H1671.0V-323.0Q1671.0 -373.0 1642.5 -404.0Q1614.0 -435.0 1564.0 -435.0Q1513.0 -435.0 1481.5 -403.5Q1450.0 -372.0 1450.0 -319.0V0.0Z"/><path d="M2169.0 18.0Q2112.0 18.0 2064.0 -3.0Q2016.0 -24.0 1981.0 -62.0Q1946.0 -100.0 1927.0 -150.5Q1908.0 -201.0 1908.0 -260.0V-281.0Q1908.0 -339.0 1926.5 -390.0Q1945.0 -441.0 1978.5 -479.0Q2012.0 -517.0 2059.5 -538.5Q2107.0 -560.0 2165.0 -560.0Q2229.0 -560.0 2277.5 -532.5Q2326.0 -505.0 2355.0 -450.0Q2384.0 -395.0 2387.0 -312.0L2346.0 -360.0V-730.0H2485.0V0.0H2375.0V-231.0H2399.0Q2396.0 -148.0 2365.0 -92.5Q2334.0 -37.0 2283.5 -9.5Q2233.0 18.0 2169.0 18.0ZM2200.0 -99.0Q2241.0 -99.0 2275.0 -117.5Q2309.0 -136.0 2329.5 -171.5Q2350.0 -207.0 2350.0 -255.0V-295.0Q2350.0 -343.0 2329.0 -375.5Q2308.0 -408.0 2274.0 -425.5Q2240.0 -443.0 2200.0 -443.0Q2155.0 -443.0 2120.5 -421.5Q2086.0 -400.0 2066.5 -361.0Q2047.0 -322.0 2047.0 -270.0Q2047.0 -218.0 2067.0 -179.5Q2087.0 -141.0 2121.5 -120.0Q2156.0 -99.0 2200.0 -99.0Z"/><path d="M2889.0 19.0Q2817.0 19.0 2762.0 -4.0Q2707.0 -27.0 2669.0 -66.5Q2631.0 -106.0 2611.5 -156.0Q2592.0 -206.0 2592.0 -260.0V-281.0Q2592.0 -337.0 2612.5 -387.5Q2633.0 -438.0 2671.5 -477.5Q2710.0 -517.0 2765.0 -539.5Q2820.0 -562.0 2889.0 -562.0Q2958.0 -562.0 3013.0 -539.5Q3068.0 -517.0 3106.5 -477.5Q3145.0 -438.0 3165.0 -387.5Q3185.0 -337.0 3185.0 -281.0V-260.0Q3185.0 -206.0 3165.5 -156.0Q3146.0 -106.0 3108.0 -66.5Q3070.0 -27.0 3015.0 -4.0Q2960.0 19.0 2889.0 19.0ZM2889.0 -100.0Q2940.0 -100.0 2975.0 -122.5Q3010.0 -145.0 3028.0 -183.5Q3046.0 -222.0 3046.0 -271.0Q3046.0 -321.0 3027.5 -359.5Q3009.0 -398.0 2973.5 -420.5Q2938.0 -443.0 2889.0 -443.0Q2840.0 -443.0 2804.5 -420.5Q2769.0 -398.0 2750.0 -359.5Q2731.0 -321.0 2731.0 -271.0Q2731.0 -222.0 2749.5 -183.5Q2768.0 -145.0 2803.0 -122.5Q2838.0 -100.0 2889.0 -100.0Z"/><path d="M3292.0 0.0V-543.0H3402.0V-313.0H3399.0Q3399.0 -430.0 3449.0 -490.0Q3499.0 -550.0 3596.0 -550.0H3616.0V-429.0H3578.0Q3508.0 -429.0 3469.5 -391.5Q3431.0 -354.0 3431.0 -283.0V0.0Z"/><path d="M3720.0 0.0V-543.0H3859.0V0.0ZM3644.0 -439.0V-543.0H3859.0V-439.0ZM3771.0 -608.0Q3730.0 -608.0 3710.5 -629.5Q3691.0 -651.0 3691.0 -684.0Q3691.0 -717.0 3710.5 -738.0Q3730.0 -759.0 3771.0 -759.0Q3812.0 -759.0 3831.0 -738.0Q3850.0 -717.0 3850.0 -684.0Q3850.0 -651.0 3831.0 -629.5Q3812.0 -608.0 3771.0 -608.0Z"/></g><g transform="translate(323.836 60.000) scale(0.082192)" fill="url(#zg)"><path d="M57.0 0.0V-160.0H213.0V0.0Z"/><path d="M662.0 0.0V-161.0H639.0V-340.0Q639.0 -387.0 616.0 -410.0Q593.0 -433.0 545.0 -433.0Q520.0 -433.0 485.0 -432.0Q450.0 -431.0 414.5 -429.5Q379.0 -428.0 351.0 -426.0V-544.0Q374.0 -546.0 403.0 -548.0Q432.0 -550.0 462.5 -550.5Q493.0 -551.0 520.0 -551.0Q604.0 -551.0 659.5 -529.0Q715.0 -507.0 743.5 -460.0Q772.0 -413.0 772.0 -337.0V0.0ZM487.0 14.0Q428.0 14.0 383.5 -7.0Q339.0 -28.0 314.5 -67.0Q290.0 -106.0 290.0 -161.0Q290.0 -221.0 319.5 -259.0Q349.0 -297.0 402.5 -316.0Q456.0 -335.0 528.0 -335.0H654.0V-252.0H526.0Q478.0 -252.0 452.5 -228.5Q427.0 -205.0 427.0 -168.0Q427.0 -131.0 452.5 -108.0Q478.0 -85.0 526.0 -85.0Q555.0 -85.0 579.5 -95.5Q604.0 -106.0 620.5 -131.5Q637.0 -157.0 639.0 -201.0L673.0 -162.0Q668.0 -105.0 645.5 -66.0Q623.0 -27.0 583.5 -6.5Q544.0 14.0 487.0 14.0Z"/><path d="M932.0 0.0V-543.0H1071.0V0.0ZM856.0 -439.0V-543.0H1071.0V-439.0ZM983.0 -608.0Q942.0 -608.0 922.5 -629.5Q903.0 -651.0 903.0 -684.0Q903.0 -717.0 922.5 -738.0Q942.0 -759.0 983.0 -759.0Q1024.0 -759.0 1043.0 -738.0Q1062.0 -717.0 1062.0 -684.0Q1062.0 -651.0 1043.0 -629.5Q1024.0 -608.0 983.0 -608.0Z"/></g></svg>